HIERARCHY
ROOT root
{
    OFFSET 0.000000 0.000000 0.000000
    CHANNELS 6 Xposition Yposition Zposition Zrotation Xrotation Yrotation
    JOINT spine_01
    {
        OFFSET -0.000000 8.390369 0.000000
        CHANNELS 3 Zrotation Xrotation Yrotation
        JOINT spine_02
        {
            OFFSET -0.000000 20.482714 0.000000
            CHANNELS 3 Zrotation Xrotation Yrotation
            JOINT neck
            {
                OFFSET -0.000000 22.529144 0.000000
                CHANNELS 3 Zrotation Xrotation Yrotation
                JOINT head
                {
                    OFFSET -0.000000 15.859845 2.046431
                    CHANNELS 3 Zrotation Xrotation Yrotation
                    End Site
                    {
                        OFFSET -0.000000 20.464315 0.000000
                    }
                }
            }
            JOINT clavicle_l
            {
                OFFSET 4.164947 16.837574 -0.672558
                CHANNELS 3 Zrotation Xrotation Yrotation
                JOINT upperarm_l
                {
                    OFFSET 17.476009 0.000000 0.000000
                    CHANNELS 3 Zrotation Xrotation Yrotation
                    JOINT lowerarm_l
                    {
                        OFFSET 26.105320 0.000000 0.000000
                        CHANNELS 3 Zrotation Xrotation Yrotation
                        JOINT hand_l
                        {
                            OFFSET 26.966202 0.000000 0.000000
                            CHANNELS 3 Zrotation Xrotation Yrotation
                            End Site
                            {
                                OFFSET 15.348238 0.000000 0.000000
                            }
                        }
                    }
                }
            }
            JOINT clavicle_r
            {
                OFFSET -4.003590 16.837574 -0.672558
                CHANNELS 3 Zrotation Xrotation Yrotation
                JOINT upperarm_r
                {
                    OFFSET -17.476009 0.000000 0.000000
                    CHANNELS 3 Zrotation Xrotation Yrotation
                    JOINT lowerarm_r
                    {
                        OFFSET -26.105320 0.000000 0.000000
                        CHANNELS 3 Zrotation Xrotation Yrotation
                        JOINT hand_r
                        {
                            OFFSET -26.966202 0.000000 0.000000
                            CHANNELS 3 Zrotation Xrotation Yrotation
                            End Site
                            {
                                OFFSET -15.348238 0.000000 0.000000
                            }
                        }
                    }
                }
            }
        }
    }
    JOINT tigh_l
    {
        OFFSET 10.232158 0.000000 0.000000
        CHANNELS 3 Zrotation Xrotation Yrotation
        JOINT calf_l
        {
            OFFSET -0.000000 -49.965782 0.000000
            CHANNELS 3 Zrotation Xrotation Yrotation
            JOINT foot_l
            {
                OFFSET -0.000000 -44.072388 0.000000
                CHANNELS 3 Zrotation Xrotation Yrotation
                JOINT ball_l
                {
                    OFFSET -0.000000 -6.650902 15.348238
                    CHANNELS 3 Zrotation Xrotation Yrotation
                    End Site
                    {
                        OFFSET -0.000000 0.000000 4.092863
                    }
                }
            }
        }
    }
    JOINT tigh_r
    {
        OFFSET -10.232158 0.000000 0.000000
        CHANNELS 3 Zrotation Xrotation Yrotation
        JOINT calf_r
        {
            OFFSET -0.000000 -49.965782 0.000000
            CHANNELS 3 Zrotation Xrotation Yrotation
            JOINT foot_r
            {
                OFFSET -0.000000 -44.072388 0.000000
                CHANNELS 3 Zrotation Xrotation Yrotation
                JOINT ball_r
                {
                    OFFSET -0.000000 -6.650902 15.348238
                    CHANNELS 3 Zrotation Xrotation Yrotation
                    End Site
                    {
                        OFFSET -0.000000 0.000000 4.092863
                    }
                }
            }
        }
    }
}
MOTION
Frames:    13
Frame Time:    0.002778
-92.273750    100.938988    3.693298    5.405199    0.692443    92.139671    -4.555287    -13.350194    -2.212698    6.615017    19.179863    -1.676959    0.607640    3.038819    -2.042409    1.553022    4.056056    -2.266891    6.806207    -0.206424    8.497909    -79.184692    36.987335    -11.728652    -1.436538    10.063891    -23.233551    6.839325    10.147436    6.366611    -5.328059    -4.266219    3.503380    78.407028    28.563543    2.145864    -2.385399    2.404711    21.333794    -6.371539    3.395224    -9.715805    0.679979    12.150002    1.830619    -0.193835    -5.056960    -1.255287    -4.028444    -6.162168    -4.461533    0.000000    0.000000    0.000000    -0.017457    10.583755    0.468202    -0.130551    -3.079628    0.989086    0.306406    -6.505260    -7.138571    0.000000    0.000000    0.000000    
-92.273750    100.938988    3.693298    5.405199    0.692443    92.139671    -4.555287    -13.350194    -2.212698    6.615017    19.179863    -1.676959    0.607640    3.038819    -2.042409    1.553022    4.056056    -2.266891    6.806207    -0.206424    8.497909    -79.184692    36.987335    -11.728652    -1.436538    10.063891    -23.233551    6.839325    10.147436    6.366611    -5.328059    -4.266219    3.503380    78.407028    28.563543    2.145864    -2.385399    2.404711    21.333794    -6.371539    3.395224    -9.715805    0.679979    12.150002    1.830619    -0.193835    -5.056960    -1.255287    -4.028444    -6.162168    -4.461533    0.000000    0.000000    0.000000    -0.017457    10.583755    0.468202    -0.130551    -3.079628    0.989086    0.306406    -6.505260    -7.138571    0.000000    0.000000    0.000000    
-92.303299    100.940788    3.694069    5.436376    0.695716    92.141541    -4.507095    -13.255347    -2.189626    6.576110    19.154222    -1.664259    0.613992    3.001808    -2.017042    1.597352    4.183100    -2.248858    6.807011    -0.224463    8.471110    -79.124413    37.257080    -11.717870    -1.434300    9.786285    -23.301908    6.814932    9.873970    6.465720    -5.288202    -4.171865    3.513112    78.360336    28.653973    2.239526    -2.444897    2.208756    21.337679    -6.358062    3.209087    -9.707968    0.688541    12.199828    1.771840    -0.175655    -5.056255    -1.145513    -4.068847    -6.206170    -4.505011    0.000000    0.000000    0.000000    -0.025360    10.584451    0.461878    -0.119854    -3.052531    1.026057    0.310067    -6.507980    -7.178198    0.000000    0.000000    0.000000    
-92.319855    100.943947    3.695390    5.440381    0.699374    92.150650    -4.531048    -13.246712    -2.213302    6.623201    19.161736    -1.679800    0.608478    3.081000    -2.044265    1.513530    4.081762    -2.262311    6.782890    -0.193113    8.463791    -79.148376    37.299156    -11.755336    -1.371615    9.747311    -23.218189    6.814318    9.844144    6.387624    -5.321071    -4.150198    3.566981    78.365631    28.674744    2.263459    -2.404550    2.128805    21.326185    -6.505263    3.134819    -9.723656    0.674204    12.151036    1.765861    -0.176376    -5.038621    -1.209537    -4.060353    -6.147168    -4.468934    0.000000    0.000000    0.000000    -0.026420    10.571546    0.452044    -0.120826    -3.031669    1.039408    0.316349    -6.506354    -7.190856    0.000000    0.000000    0.000000    
-92.319855    100.943947    3.695390    5.440381    0.699374    92.150650    -4.531048    -13.246712    -2.213302    6.623201    19.161736    -1.679800    0.608478    3.081000    -2.044265    1.513530    4.081762    -2.262311    6.782890    -0.193113    8.463791    -79.148376    37.299156    -11.755336    -1.371615    9.747311    -23.218189    6.814318    9.844144    6.387624    -5.321071    -4.150198    3.566981    78.365631    28.674744    2.263459    -2.404550    2.128805    21.326185    -6.505263    3.134819    -9.723656    0.674204    12.151036    1.765861    -0.176376    -5.038621    -1.209537    -4.060353    -6.147168    -4.468934    0.000000    0.000000    0.000000    -0.026420    10.571546    0.452044    -0.120826    -3.031669    1.039408    0.316349    -6.506354    -7.190856    0.000000    0.000000    0.000000    
-92.432854    100.960243    3.648759    5.278956    0.731682    92.197037    -4.463310    -13.210756    -2.244965    6.567603    19.004032    -1.674753    0.549090    3.106225    -2.036987    1.540604    4.098395    -2.268872    6.766297    -0.160486    8.449503    -79.164886    37.312859    -11.802242    -1.363669    9.861732    -23.189194    6.847642    9.960711    6.360569    -5.336665    -4.133798    3.584128    78.311066    28.665112    2.283756    -2.356220    2.079782    21.333353    -6.398931    3.057287    -9.535851    0.589181    11.935678    1.594426    -0.078943    -5.005590    -0.981195    -4.102191    -6.097340    -4.541991    0.000000    0.000000    0.000000    -0.171580    10.296506    0.406469    0.003795    -2.964997    1.467127    0.296883    -6.434864    -7.528658    0.000000    0.000000    0.000000    
-92.449364    100.966263    3.650787    5.287844    0.742374    92.206451    -4.474401    -13.165080    -2.248387    6.579394    18.986374    -1.677021    0.530552    3.081923    -1.978312    1.560692    4.149034    -2.215312    6.762912    -0.169637    8.443399    -79.175812    37.361843    -11.802493    -1.355695    9.820486    -23.147585    6.814029    9.911376    6.217836    -5.338702    -4.142787    3.580116    78.316620    28.694841    2.284877    -2.356615    2.073882    21.329651    -6.405617    3.051961    -9.536851    0.583853    11.924558    1.585752    -0.081642    -4.984464    -1.010263    -4.107648    -6.072142    -4.510552    0.000000    0.000000    0.000000    -0.205099    10.225991    0.417904    0.056573    -2.756528    0.618084    0.388197    -6.595448    -6.570059    0.000000    0.000000    0.000000    
-92.449364    100.966263    3.650787    5.287844    0.742374    92.206451    -4.474401    -13.165080    -2.248387    6.579394    18.986374    -1.677021    0.530552    3.081923    -1.978312    1.560692    4.149034    -2.215312    6.762912    -0.169637    8.443399    -79.175812    37.361843    -11.802493    -1.355695    9.820486    -23.147585    6.814029    9.911376    6.217836    -5.338702    -4.142787    3.580116    78.316620    28.694841    2.284877    -2.356615    2.073882    21.329651    -6.405617    3.051961    -9.536851    0.583853    11.924558    1.585752    -0.081642    -4.984464    -1.010263    -4.107648    -6.072142    -4.510552    0.000000    0.000000    0.000000    -0.205099    10.225991    0.417904    0.056573    -2.756528    0.618084    0.388197    -6.595448    -6.570059    0.000000    0.000000    0.000000    
-92.490570    100.970200    3.653609    5.282114    0.753501    92.221146    -4.472497    -13.090765    -2.249519    6.588321    18.956598    -1.678083    0.443150    2.978989    -1.936037    1.774921    4.408147    -2.225198    6.840860    -0.213298    8.434530    -79.279404    37.494938    -11.785448    -1.316952    9.864743    -23.076527    6.852758    9.954945    6.025062    -5.343352    -4.180427    3.570557    78.336960    28.748720    2.277881    -2.369909    2.064784    21.335049    -6.077942    3.030328    -9.765115    0.590880    11.866100    1.559525    -0.142733    -4.990513    -1.132422    -4.079504    -6.002542    -4.390573    0.000000    0.000000    0.000000    -0.258058    10.176180    0.573551    0.142434    -2.669672    0.871055    0.308319    -6.674255    -6.912807    0.000000    0.000000    0.000000    
-92.448883    100.995888    3.640663    5.380280    0.833511    92.012772    -4.471852    -13.145174    -2.095525    6.532939    19.119801    -1.626296    0.464579    3.308435    -2.013165    1.776546    3.923278    -2.293072    6.865919    -0.178469    8.428328    -79.118690    37.366253    -11.870536    -1.676520    9.853671    -23.105211    6.929802    9.893957    6.339746    -5.323943    -4.176402    3.605950    78.325562    28.731527    2.298202    -2.341415    2.056143    21.315531    -6.126475    3.020535    -9.773718    0.474924    12.023763    1.730153    -0.162802    -4.998592    -1.371860    -4.070198    -5.806473    -4.063218    0.000000    0.000000    0.000000    -0.369091    10.350634    0.798315    0.117979    -2.883545    1.824757    0.203487    -6.434444    -8.009950    0.000000    0.000000    0.000000    
-92.448883    100.995888    3.640663    5.380280    0.833511    92.012772    -4.471852    -13.145174    -2.095525    6.532939    19.119801    -1.626296    0.464579    3.308435    -2.013165    1.776546    3.923278    -2.293072    6.865919    -0.178469    8.428328    -79.118690    37.366253    -11.870536    -1.676520    9.853671    -23.105211    6.929802    9.893957    6.339746    -5.323943    -4.176402    3.605950    78.325562    28.731527    2.298202    -2.341415    2.056143    21.315531    -6.126475    3.020535    -9.773718    0.474924    12.023763    1.730153    -0.162802    -4.998592    -1.371860    -4.070198    -5.806473    -4.063218    0.000000    0.000000    0.000000    -0.369091    10.350634    0.798315    0.117979    -2.883545    1.824757    0.203487    -6.434444    -8.009950    0.000000    0.000000    0.000000    
-92.484726    101.000046    3.646093    5.377791    0.835719    92.031845    -4.464603    -13.085378    -2.105090    6.544057    19.094917    -1.631077    0.493810    3.119016    -1.983727    1.700580    4.275829    -2.251500    6.865042    -0.171153    8.416430    -79.119499    37.433445    -11.901488    -1.646355    9.846260    -23.068359    6.744540    9.885677    6.385476    -5.339666    -4.193047    3.625031    78.355438    28.759560    2.294451    -2.349353    2.045994    21.302486    -6.004233    2.998440    -9.722036    0.483181    11.989934    1.716173    -0.178502    -4.979036    -1.200152    -4.102637    -5.800146    -4.215636    0.000000    0.000000    0.000000    -0.356258    10.320320    0.759223    0.072010    -2.868660    1.938621    0.264510    -6.412817    -8.027467    0.000000    0.000000    0.000000    
-92.536560    100.987923    3.657372    5.347543    0.812542    92.155388    -4.475503    -12.981249    -2.194746    6.572201    18.983538    -1.660041    0.513485    3.144855    -1.998141    1.656013    4.257310    -2.255459    6.865176    -0.176389    8.402834    -79.131210    37.412788    -11.888457    -1.696512    9.889994    -23.036648    6.908833    9.923902    6.302256    -5.347094    -4.199172    3.632107    78.369911    28.778955    2.297406    -2.353296    2.043056    21.287447    -6.014392    2.998307    -9.750673    0.546062    11.883443    1.609318    -0.189305    -4.910409    -1.233665    -4.115351    -5.939947    -4.234140    0.000000    0.000000    0.000000    -0.328503    10.194871    0.650739    0.141432    -2.621326    0.964977    0.325887    -6.681175    -6.967299    0.000000    0.000000    0.000000    
